<svg width="144" height="88" viewBox="0 0 144 88" fill="none" xmlns="http://www.w3.org/2000/svg">
<path d="M109.652 36.2421C109.305 36.821 108.263 37.1684 107.684 37.6315C106.989 38.3263 107.336 48.1684 107.336 49.9052C107.336 52.1052 107.336 54.1894 107.336 56.3894C107.336 56.9684 107.336 57.6631 107.336 58.2421H107.105H106.873H104.094V58.9368L103.863 60.3263C103.747 60.0947 103.515 59.7473 103.4 59.5158C103.284 59.2842 102.936 58.7052 102.589 58.2421C102.357 57.8947 102.242 57.6631 102.126 57.4315C100.621 55 99.1154 52.6842 97.6101 50.2526C97.0312 49.3263 96.4522 48.2842 95.8733 47.3579C94.7154 45.7368 93.7891 44 92.747 42.3789C92.747 43.0737 92.747 44 92.747 44.6947V48.7473V55.2315C92.747 56.1579 92.747 57.4315 92.747 58.7052C92.0522 58.2421 91.1259 58.1263 90.0838 58.3579C90.1996 54.3052 90.0838 50.3684 90.0838 46.3158C90.0838 44.2315 90.0838 42.1473 90.0838 40.0631C90.0838 39.4842 90.0838 38.7894 89.968 38.2105C89.7364 37.1684 89.1575 37.1684 88.6943 36.4737C88.6943 36.3579 88.6943 36.2421 88.6943 36.1263C89.1575 35.7789 92.0522 35.8947 92.9786 35.8947C94.1364 35.8947 94.8312 35.5473 95.6417 36.7052C96.568 38.0947 97.2628 39.4842 98.0733 40.7579L104.094 50.3684C104.326 50.8315 104.673 51.9894 105.252 51.7579C105.252 51.5263 105.252 50.7158 105.252 50.3684C105.252 47.2421 105.252 43.8842 105.252 40.7579C105.136 39.7158 105.252 38.0947 104.442 37.4C103.979 37.0526 102.473 36.9368 102.473 36.2421C102.473 36.2421 102.473 36.0105 102.705 36.0105C103.4 35.6631 109.305 35.7789 110 36.0105C110 36.0105 110.115 36.0105 110.115 36.2421H109.652Z" fill="white"/>
<path d="M19.6838 33.6948C21.3048 33.579 23.7364 33.6948 25.2417 34.5053C25.9364 34.8527 26.2838 35.5474 26.5154 36.2421C26.7469 37.2842 26.9785 41.2211 26.5154 42.0316C26.5154 42.2632 26.2838 42.379 26.0522 42.4948C23.6206 43.0737 23.2732 37.4 21.0732 36.1263C20.2627 35.6632 19.2206 35.779 18.4101 36.1263C16.789 37.6316 15.9785 39.8316 15.7469 42.0316C15.6311 42.9579 15.6311 43.5369 15.3996 44.4632C15.0522 45.5053 15.168 46.779 15.168 47.8211C15.168 49.9053 15.168 51.7579 15.6311 53.8421C15.9785 55.8106 16.0943 57.5474 17.2522 59.2842C17.8311 60.3263 18.4101 61.2527 19.6838 61.6C20.2627 61.7158 20.9575 61.6 21.5364 61.3685C23.0417 60.5579 23.8522 57.3158 24.3154 55.8106C24.3154 55.4632 24.5469 55.2316 24.6627 54.8842C24.7785 54.3053 25.3575 53.6106 25.9364 53.379C26.2838 53.379 26.7469 53.379 27.0943 53.4948C27.4417 53.7263 27.4417 54.3053 27.5575 54.6527C27.5575 56.1579 27.5575 59.2842 27.0943 60.7895C26.9785 61.1369 26.7469 61.6 26.3996 61.8316C25.1259 63.2211 22.8101 63.4527 21.0732 63.5685C18.2943 63.8 14.9364 62.7579 12.7364 60.9053C12.2732 60.4421 11.6943 59.979 11.2311 59.5158C10.6522 58.8211 10.189 58.0106 9.84167 57.3158C8.56798 54.8842 8.10483 52.9158 7.87325 50.2527C7.52588 45.8527 8.68377 41.3369 11.5785 37.979C13.7785 35.5474 16.6732 34.2737 19.9154 34.0421L19.6838 33.6948Z" fill="white"/>
<path d="M45.1575 53.379C45.0417 52.9158 44.9259 52.3369 44.6943 51.8737C43.6522 48.979 42.7259 45.9684 41.7996 43.0737L40.4101 38.4421C40.0627 37.5158 39.7154 36.1263 39.2522 35.3158C39.0206 35.2 38.9049 35.0842 38.6733 35.0842C38.3259 35.0842 37.5154 35.0842 37.2838 35.4316C36.7049 36.3579 36.4733 37.5158 36.1259 38.5579C35.7785 39.7158 35.1996 40.9895 34.968 42.1474C34.6206 43.6527 34.2733 44.9263 33.6943 46.3158C33.2312 47.7053 32.9996 49.2105 32.4206 50.6C32.0733 51.5263 31.7259 52.4526 31.4943 53.379C31.3785 53.9579 31.4943 54.5369 31.0312 55.3474C30.7996 55.9263 30.568 56.7369 30.3364 57.3158C29.9891 58.3579 29.8733 59.4 29.2943 60.4421C29.0627 60.7895 28.947 61.0211 28.7154 61.3684C28.368 61.8316 27.9049 61.7158 27.7891 62.179C27.7891 62.2948 27.7891 62.4105 28.0206 62.5263C28.5996 62.7579 33.9259 62.7579 34.6206 62.5263C34.7364 62.5263 34.8522 62.4105 34.8522 62.179C34.7364 61.2527 32.1891 62.0632 32.5364 59.6316C32.768 58.2421 33.2312 56.6211 33.5785 55.2316C33.6943 54.6527 37.747 54.8842 38.4417 54.8842C39.2522 54.8842 40.2943 54.7684 40.5259 55.6948C40.5259 55.9263 40.5259 56.0421 40.6417 56.2737C41.2206 55.8105 41.9154 55.3474 42.7259 55.1158C43.5364 54.7684 44.347 54.5369 45.2733 54.4211C45.2733 54.1895 45.0417 53.8421 44.9259 53.6105L45.1575 53.379ZM37.3996 52.1053C36.9364 52.1053 35.3154 52.1053 34.8522 52.1053C34.8522 51.8737 34.8522 51.5263 34.968 51.2948C35.4312 49.4421 36.1259 47.7053 36.7049 45.8526C36.8206 45.2737 37.0522 44.6948 37.168 44.1158C37.2838 44.1158 37.2838 44.1158 37.2838 44.3474C37.8627 47.0105 38.7891 49.5579 39.5996 52.1053C39.0206 52.1053 37.8627 52.1053 37.2838 52.1053H37.3996ZM47.8206 60.6737C47.5891 60.3263 47.3575 59.8632 47.2417 59.5158C47.1259 59.5158 47.0101 59.4 46.7785 59.2842C46.7785 59.2842 46.547 59.2842 46.0838 59.2842C45.6206 59.2842 45.3891 59.4 45.0417 59.6316C44.5785 59.979 44.347 60.4421 43.9996 61.1369C43.768 61.6 43.6522 62.0632 43.6522 62.6421C45.6206 62.6421 47.7049 62.6421 48.3996 62.6421C48.5154 62.6421 48.8627 62.6421 48.9785 62.5263C48.9785 62.5263 49.0943 62.5263 49.0943 62.4105C49.0943 61.7158 48.168 61.4842 47.8206 60.7895V60.6737Z" fill="white"/>
<path d="M82.7892 57.8947C82.5576 56.9684 81.9787 55.6947 81.7471 54.7684C81.3997 53.3789 80.9366 51.9895 80.4734 50.6L78.3892 43.8842C77.5787 41.2211 76.8839 38.4421 75.8418 35.7789C75.4945 34.8526 75.0313 34.8526 74.2208 34.9684C73.9892 34.9684 73.526 35.2 73.526 35.4316C72.9471 37.1684 72.3682 39.2526 71.7892 41.1053C71.326 42.6105 70.8629 43.8842 70.3997 45.2737L67.1576 55.9263C66.926 56.6211 66.6945 57.4316 66.4629 58.2421C67.0418 58.0105 67.505 57.8947 68.0839 57.8947C68.6629 57.8947 68.8945 57.8947 69.2418 58.0105C69.3576 57.3158 69.5892 56.6211 69.9366 55.8105C70.0524 55.3474 70.1682 54.8842 70.2839 54.4211C71.7892 54.3053 73.6418 54.3053 75.1471 54.3053H76.6524C77.1155 55.2316 77.4629 56.6211 77.8103 57.7789H79.7787C80.5892 57.7789 81.2839 58.1263 81.7471 58.8211C82.0945 58.5895 82.4418 58.3579 82.7892 58.2421H83.0208C83.0208 58.0105 83.0208 57.7789 82.905 57.5474L82.7892 57.8947ZM73.4103 52.1053C72.5997 52.1053 71.6734 52.1053 70.9787 52.1053C71.2103 51.1789 71.6734 50.2526 71.905 49.3263C72.2524 48.1684 72.3682 47.1263 72.8313 46.0842C73.0629 45.3895 73.2945 44.8105 73.526 44.1158C73.6418 44.1158 74.9155 48.7474 75.0313 49.3263C75.3787 50.2526 75.6103 51.1789 75.9576 51.9895C75.1471 51.9895 74.2208 51.9895 73.4103 51.9895V52.1053Z" fill="white"/>
<path d="M65.7681 43.6526C65.5365 43.6526 65.3049 43.6526 65.1891 43.6526C64.6102 43.1895 64.4944 40.4105 63.2207 39.2526C61.947 37.9789 60.7891 38.0947 59.1681 38.2105C59.1681 39.6 59.1681 41.6842 59.1681 43.0737V53.7263C59.1681 55.3473 59.1681 57.4316 59.1681 59.0526C59.1681 59.1684 59.1681 59.2842 59.1681 59.5158C58.2418 58.7052 57.0839 58.3579 55.5786 58.3579C54.0733 58.3579 54.6523 58.3579 54.1891 58.4737C54.1891 57.5473 54.1891 56.621 54.1891 55.9263V51.2947C54.1891 46.8947 54.1891 42.4947 54.1891 38.0947C51.4102 38.0947 49.7891 38.5579 48.9786 41.5684C48.747 42.2631 48.9786 43.3052 48.1681 43.6526C48.0523 43.6526 47.9365 43.6526 47.9365 43.6526C47.3575 43.0737 47.7049 37.1684 47.7049 35.8947C52.3365 36.0105 56.9681 35.8947 61.4839 35.8947C62.7575 35.8947 64.147 35.8947 65.5365 35.8947C65.8839 36.4737 65.7681 39.2526 65.7681 40.0631C65.7681 41.221 65.8839 42.7263 65.7681 43.8842V43.6526Z" fill="white"/>
<path d="M72.0211 14.1263C73.1789 14.1263 74.3368 14.1263 75.4947 14.1263C76.421 14.1263 77.4632 14.1263 78.2737 14.1263C79.4316 14.3579 80.5895 14.5895 81.7474 14.5895C82.0947 14.5895 82.7895 14.821 83.1368 14.9368C83.9474 15.0526 84.7579 15.2842 85.5684 15.5158C87.8842 16.2105 90.2 17.021 92.2842 18.1789C93.6737 18.9895 95.0632 20.0316 96.5684 20.8421C96.9158 21.0737 97.7263 22 97.9579 22.2316C99.1158 22.8105 99.8105 23.5053 100.621 24.4316C102.589 26.4 104.558 28.6 105.947 31.1474C106.063 31.3789 106.642 32.0737 106.295 32.421C103.632 32.8842 103.516 31.8421 102.126 29.9895C100.968 28.6 99.8105 27.2105 98.6526 25.9368C98.1895 25.4737 97.4947 25.0105 96.9158 24.5474C92.1684 20.4947 86.4947 17.9474 80.3579 16.9053C79.7789 16.9053 78.9684 16.7895 78.2737 16.6737C75.3789 16.3263 72.3684 16.6737 69.4737 17.021C68.0842 17.2526 66.5789 17.8316 65.1895 18.0632C63.5684 18.4105 62.2947 19.221 60.9053 19.8C58.7053 20.7263 57.2 21.6526 55.3474 23.0421C52.3368 25.2421 50.0211 27.5579 47.8211 30.4526C47.3579 31.0316 46.8947 31.6105 46.4316 32.1895C45.9684 32.3053 44.2316 32.4211 44 32.0737C44 31.2632 45.6211 29.1789 46.0842 28.3684C46.4316 28.021 46.7789 27.6737 47.0105 27.3263C48.1684 25.9368 49.4421 24.4316 50.7158 23.2737C51.0632 22.9263 51.5263 22.6947 51.9895 22.4632C52.2211 22.2316 52.5684 21.7684 52.8 21.6526C56.0421 19.3368 59.4 17.1368 63.2211 16.0947C63.4526 16.0947 63.8 15.7474 64.1474 15.7474C65.6526 15.4 67.1579 14.9368 68.6632 14.7053C69.9368 14.4737 70.5158 14.7053 71.7895 14.1263H72.0211Z" fill="white"/>
<path d="M59.1686 62.6421C59.0528 61.9474 58.7054 61.3684 58.3581 60.9053C57.7791 60.2105 56.8528 59.8632 55.6949 59.8632C54.537 59.8632 54.537 59.8632 53.9581 60.2105C53.8423 60.2105 53.7265 60.2105 53.6107 60.3263C53.0317 60.6737 52.4528 61.0211 51.9896 61.6C51.8739 61.7158 51.7581 61.9474 51.6423 62.0632C51.2949 62.5263 51.0633 62.9895 50.8317 63.5684C50.6002 64.0316 50.4844 64.4947 50.4844 65.0737C50.4844 65.4211 50.4844 65.6526 50.4844 66C50.4844 66.9263 50.716 67.7368 51.0633 68.3158C51.0633 68.5474 51.2949 68.6632 51.5265 68.8947C52.2212 69.5895 53.0317 69.8211 54.3054 69.8211C55.5791 69.8211 55.6949 69.7053 56.3896 69.3579C57.0844 69.0105 57.5475 68.6632 58.1265 68.0842C58.5896 67.5053 58.937 66.9263 59.2844 66.1158C59.2844 65.8842 59.4002 65.6526 59.516 65.4211C59.6317 64.8421 59.7475 64.2632 59.7475 63.6842C59.7475 63.2211 59.7475 62.7579 59.6317 62.4105L59.1686 62.6421ZM56.5054 66.3474C56.2738 67.0421 56.0423 67.5053 55.6949 67.8526C55.3475 68.2 55.0002 68.4316 54.537 68.4316C54.0738 68.4316 53.6107 68.2 53.3791 67.7368C53.1475 67.2737 53.0317 66.5789 53.0317 65.7684C53.0317 64.9579 53.0317 64.1474 53.3791 63.5684C53.3791 63.2211 53.6107 62.8737 53.7265 62.6421C53.8423 62.4105 53.9581 62.1789 54.1896 62.0632C54.537 61.7158 54.8844 61.4842 55.3475 61.4842C55.8107 61.4842 56.2738 61.7158 56.5054 62.1789C56.5054 62.2947 56.6212 62.5263 56.737 62.6421C56.8528 62.9895 56.8528 63.5684 56.8528 64.1474C56.8528 64.9579 56.8528 65.7684 56.6212 66.3474H56.5054Z" fill="white"/>
<path d="M50.1373 57.5474C50.1373 57.8948 50.1373 58.1263 49.9057 58.3579C49.7899 58.5895 49.6741 58.7053 49.4425 58.7053C49.211 58.7053 49.211 58.7053 48.9794 58.5895C48.7478 58.5895 48.632 58.3579 48.4004 58.2421C48.0531 58.1263 47.7057 57.8948 47.3583 57.6632C47.011 57.5474 46.6636 57.4316 46.3162 57.4316C46.3162 57.4316 46.0846 57.4316 45.9689 57.4316C45.1583 57.4316 44.4636 57.6632 43.7689 58.2421C43.0741 58.7053 42.611 59.5158 42.2636 60.4421C42.032 61.1369 41.8004 61.8316 41.8004 62.6421C41.8004 62.9895 41.8004 63.3369 41.8004 63.6842C41.8004 64.7263 41.9162 65.5369 42.2636 66.2316C42.611 66.9263 42.9583 67.3895 43.4215 67.7369C43.8846 68.0842 44.4636 68.2 45.0425 68.2C45.6215 68.2 45.9689 68.2 46.432 67.8526C46.7794 67.6211 47.1267 67.3895 47.4741 67.1579C47.8215 66.9263 48.0531 66.6948 48.2846 66.4632C48.4004 66.4632 48.5162 66.2316 48.632 66.2316C48.7478 66.2316 48.8636 66.2316 48.9794 66.2316C49.0952 66.2316 49.3267 66.2316 49.3267 66.3474C49.3267 66.3474 49.4425 66.579 49.4425 66.8105C49.4425 67.2737 49.211 67.7369 48.8636 68.2C48.8636 68.2 48.8636 68.2 48.7478 68.3158C48.2846 68.779 47.7057 69.1263 47.011 69.4737C46.3162 69.8211 45.5057 69.9369 44.5794 69.9369C43.6531 69.9369 42.4952 69.7053 41.6846 69.2421C40.8741 68.779 40.1794 68.0842 39.7162 67.2737C39.2531 66.3474 39.0215 65.3053 39.0215 64.0316C39.0215 62.7579 39.2531 61.7158 39.6004 60.7895C39.9478 59.7474 40.5267 58.9369 41.2215 58.2421C41.2215 58.2421 41.4531 58.0105 41.5689 57.8948C42.1478 57.3158 42.9583 56.8526 43.7689 56.5053C44.4636 56.1579 45.2741 56.0421 46.0846 55.9263C46.3162 55.9263 46.6636 55.9263 47.011 55.9263C48.1689 55.9263 48.9794 56.0421 49.5583 56.2737C50.1373 56.5053 50.3689 56.9684 50.3689 57.5474H50.1373Z" fill="white"/>
<path d="M75.6107 61.7158C75.6107 62.0632 75.6107 62.2947 75.6107 62.6421C75.6107 62.9895 75.6107 63.2211 75.4949 63.5684L74.5686 69.7053H72.9475C72.8317 69.7053 72.7159 69.7053 72.6001 69.4737C72.6001 69.3579 72.4844 69.1263 72.4844 69.0105C72.4844 68.779 72.4844 68.6632 72.4844 68.5474C72.4844 68.3158 72.4844 68.0842 72.4844 67.8526C72.4844 67.6211 72.4844 67.2737 72.4844 67.0421C72.4844 66.6948 72.4844 66.4632 72.6001 66.2316L72.9475 64.1474C72.9475 63.9158 72.9475 63.6842 73.0633 63.3369C73.0633 63.1053 73.0633 62.8737 73.0633 62.6421C73.0633 62.4105 73.0633 62.2948 73.0633 62.179C73.0633 62.179 72.9475 62.0632 72.8317 62.0632C72.7159 62.0632 72.3686 62.179 72.0212 62.5263C71.6738 62.8737 71.2107 63.3369 70.8633 63.9158C70.5159 64.4948 70.0528 65.1895 69.7054 66.1158C69.358 66.9263 69.1265 67.8526 69.0107 68.8947C69.0107 69.0105 69.0107 69.1263 68.7791 69.2421C68.6633 69.2421 68.4317 69.4737 68.2001 69.4737C67.9686 69.4737 67.737 69.5895 67.5054 69.5895C67.2738 69.5895 67.158 69.5895 67.0422 69.5895C66.8107 69.5895 66.6949 69.5895 66.5791 69.3579C66.5791 69.2421 66.5791 69.1263 66.5791 68.8947C66.5791 68.6632 66.5791 68.3158 66.5791 67.8526C66.5791 67.3895 66.6949 66.8105 66.8107 65.8842L67.158 63.8C67.158 63.5684 67.158 63.2211 67.2738 62.9895C67.2738 62.7579 67.2738 62.5263 67.2738 62.2947C67.2738 62.179 67.2738 62.0632 67.2738 61.9474C67.2738 61.9474 67.158 61.8316 66.9265 61.8316C66.6949 61.8316 66.4633 61.9474 66.1159 62.2947C65.7686 62.6421 65.3054 63.1053 64.8422 63.6842C64.3791 64.2632 64.0317 65.0737 63.6844 65.8842C63.337 66.6948 63.1054 67.6211 62.9896 68.6632C62.9896 68.779 62.9896 68.8947 62.758 69.0105C62.6422 69.0105 62.4107 69.2421 62.1791 69.2421C61.9475 69.2421 61.7159 69.3579 61.6001 69.3579C61.3686 69.3579 61.2528 69.3579 61.137 69.3579C61.0212 69.3579 60.7896 69.3579 60.7896 69.3579C60.7896 69.3579 60.6738 69.1263 60.6738 68.8947C60.6738 68.6632 60.6738 68.2 60.6738 67.7369L60.9054 65.4211L61.137 63.4526L61.2528 62.179V61.1369C61.3686 61.1369 61.6001 59.6316 61.6001 59.6316H63.1054C63.4528 59.6316 63.5686 59.7474 63.8001 60.0948C63.9159 60.4421 64.0317 60.6737 64.0317 61.1369C64.0317 61.6 64.0317 61.6 63.9159 61.9474C63.9159 62.2947 63.6844 62.6421 63.5686 63.1053C63.4528 63.4526 63.337 63.8 63.2212 64.1474L62.758 65.7684C63.1054 64.7263 63.5686 63.8 64.0317 62.9895C64.1475 62.7579 64.3791 62.5263 64.4949 62.2947C64.8422 61.8316 65.1896 61.4842 65.537 61.1369C66.0001 60.6737 66.5791 60.3263 67.0422 60.0948C67.5054 59.8632 67.9686 59.7474 68.3159 59.7474C68.6633 59.7474 69.1265 59.7474 69.358 59.979C69.5896 60.0947 69.7054 60.3263 69.8212 60.5579C69.8212 60.6737 69.8212 60.9053 69.8212 61.0211C69.8212 61.0211 69.8212 61.2526 69.8212 61.3684C69.8212 61.7158 69.8212 62.0632 69.7054 62.4105C69.5896 62.7579 69.4738 63.2211 69.2422 63.8C69.1265 64.2632 68.8949 64.7263 68.7791 65.4211C69.2422 64.1474 69.8212 63.2211 70.4001 62.4105C70.6317 62.0632 70.8633 61.8316 71.0949 61.6C71.558 61.1369 72.0212 60.7895 72.3686 60.4421C73.0633 60.0948 73.6422 59.8632 74.1054 59.8632C74.5686 59.8632 74.9159 59.8632 75.1475 60.0948C75.3791 60.2105 75.6107 60.4421 75.7265 60.7895C75.8422 61.0211 75.958 61.3684 75.958 61.7158H75.6107Z" fill="white"/>
<path d="M92.4007 61.7158C92.4007 62.0632 92.4007 62.2947 92.4007 62.6421C92.4007 62.9895 92.4007 63.3369 92.2849 63.6842L91.3586 69.8211H89.7375C89.6218 69.8211 89.506 69.8211 89.3902 69.5895C89.3902 69.4737 89.2744 69.2421 89.2744 69.1263C89.2744 68.8947 89.2744 68.779 89.2744 68.6632C89.2744 68.4316 89.2744 68.2 89.2744 67.9684C89.2744 67.7369 89.2744 67.3895 89.2744 67.1579C89.2744 66.8105 89.2744 66.579 89.3902 66.3474L89.7375 64.2632C89.7375 64.0316 89.7375 63.8 89.8533 63.4526C89.8533 63.2211 89.8533 62.9895 89.8533 62.7579C89.8533 62.6421 89.8533 62.5263 89.8533 62.4105C89.8533 62.4105 89.7376 62.2947 89.6218 62.2947C89.506 62.2947 89.2744 62.4105 88.927 62.6421C88.927 62.6421 88.927 62.6421 88.8112 62.6421C88.4639 62.9895 88.0007 63.4526 87.6533 64.0316C87.306 64.6105 86.8428 65.3053 86.4954 66.2316C86.1481 67.0421 85.9165 67.9684 85.8007 69.0105C85.8007 69.1263 85.8007 69.2421 85.5691 69.3579C85.4533 69.3579 85.2218 69.5895 84.9902 69.5895C84.7586 69.5895 84.527 69.7053 84.2954 69.7053C84.0639 69.7053 83.9481 69.7053 83.8323 69.7053C83.6007 69.7053 83.4849 69.7053 83.3691 69.4737C83.3691 69.3579 83.3691 69.2421 83.3691 69.0105C83.3691 68.779 83.3691 68.4316 83.3691 67.9684C83.3691 67.5053 83.4849 66.9263 83.6007 66L83.9481 63.9158C83.9481 63.6842 83.9481 63.3369 84.0639 63.1053C84.0639 62.8737 84.0639 62.6421 84.0639 62.4105C84.0639 62.2947 84.0639 62.179 84.0639 62.179C84.0639 62.179 83.9481 62.0632 83.7165 62.0632C83.4849 62.0632 83.2533 62.179 82.906 62.5263C82.5586 62.8737 82.0954 63.3369 81.6323 63.9158C81.1691 64.4947 80.8218 65.3053 80.4744 66.1158C80.127 66.9263 79.8954 67.8526 79.7797 68.8947C79.7797 69.0105 79.7797 69.1263 79.5481 69.2421C79.4323 69.2421 79.2007 69.4737 78.9691 69.4737C78.7375 69.4737 78.506 69.5895 78.3902 69.5895C78.1586 69.5895 78.0428 69.5895 77.927 69.5895C77.8112 69.5895 77.5797 69.5895 77.5797 69.5895C77.5797 69.5895 77.4639 69.3579 77.4639 69.1263C77.4639 68.8947 77.4639 68.4316 77.4639 67.9684L78.0428 62.4105L78.3902 59.7474H79.8954C80.2428 59.7474 80.3586 59.8632 80.5902 60.2105C80.706 60.5579 80.8218 60.7895 80.8218 61.2526C80.8218 61.7158 80.8218 61.7158 80.706 62.0632V62.5263C80.4744 62.7579 80.3586 62.9895 80.3586 63.2211C80.2428 63.5684 80.127 63.9158 80.0112 64.2632L79.5481 65.8842C79.8954 64.8421 80.3586 63.9158 80.8218 63.1053C80.9376 62.8737 81.0533 62.7579 81.1691 62.5263C81.5165 62.0632 81.8639 61.6 82.327 61.2526C82.7902 60.7895 83.3691 60.4421 83.8323 60.2105C83.8323 60.2105 83.9481 60.2105 84.0639 60.2105C84.4112 60.0947 84.7586 59.979 85.106 59.979C85.5691 59.979 85.9165 59.979 86.1481 60.2105C86.3797 60.3263 86.4954 60.5579 86.6112 60.7895C86.6112 61.0211 86.727 61.2526 86.727 61.6C86.727 61.9474 86.727 62.2947 86.6112 62.6421C86.4954 62.9895 86.3797 63.4526 86.1481 64.0316C86.0323 64.4947 85.8007 64.9579 85.6849 65.6526C86.1481 64.379 86.727 63.3369 87.306 62.5263C88.0007 61.6 88.6954 61.0211 89.2744 60.5579C89.506 60.4421 89.7375 60.3263 89.8533 60.2105C90.3165 59.979 90.6639 59.979 91.0112 59.979C91.3586 59.979 91.8218 59.979 92.0533 60.2105C92.2849 60.3263 92.5165 60.5579 92.6323 60.9053C92.7481 61.1368 92.8639 61.4842 92.8639 61.8316L92.4007 61.7158Z" fill="white"/>
<path d="M102.937 61.3684L102.011 69.7053H100.506C100.39 69.7053 100.158 69.7053 100.158 69.4737C100.158 69.3579 99.9268 69.1263 99.9268 68.8947C99.9268 68.6632 99.9268 68.5474 99.9268 68.4316C99.9268 68.0842 99.9268 67.8526 100.043 67.3895C100.043 67.0421 100.274 66.579 100.39 66C100.39 65.6526 100.621 65.3053 100.737 64.9579C100.274 66 99.811 66.8105 99.3478 67.3895C98.7689 68.2 98.1899 68.779 97.4952 69.1263C96.9162 69.4737 96.3373 69.7053 95.7583 69.7053C95.1794 69.7053 94.832 69.5895 94.4846 69.2421C94.1373 68.8947 94.0215 68.5474 94.0215 67.9684C94.0215 67.3895 94.0215 67.6211 94.0215 67.3895C94.0215 67.1579 94.0215 66.9263 94.0215 66.6947C94.0215 66.4632 94.0215 66.1158 94.1373 65.6526L94.6004 62.4105V61.4842C94.7162 61.4842 94.9478 59.7474 94.9478 59.7474H96.4531C96.6846 59.7474 96.8004 59.8632 96.9162 60.0948C96.9162 60.3263 97.032 60.6737 97.032 61.0211C97.032 61.3684 97.032 61.7158 97.032 62.0632C97.032 62.5263 97.032 62.9895 96.9162 63.5684L96.6846 65.1895C96.6846 65.5369 96.6846 65.8842 96.6846 66.1158C96.6846 66.3474 96.6846 66.579 96.6846 66.8105C96.6846 67.0421 96.6846 67.1579 96.6846 67.2737C96.6846 67.3895 96.8004 67.5053 97.032 67.5053C97.2636 67.5053 97.4952 67.3895 97.7268 67.0421C98.0741 66.8105 98.3057 66.3474 98.6531 65.8842C99.0004 65.4211 99.232 64.9579 99.5794 64.379C99.811 63.8 100.043 63.3369 100.274 62.8737C100.39 62.4105 100.506 61.9474 100.506 61.6C100.506 61.2526 100.506 61.0211 100.506 60.7895C100.506 60.5579 100.506 60.4421 100.506 60.3263C100.506 60.2105 100.506 60.0947 100.737 59.979C100.969 59.8632 101.085 59.8632 101.316 59.7474C101.548 59.7474 101.779 59.7474 102.011 59.6316C102.243 59.6316 102.474 59.6316 102.59 59.6316C102.821 59.6316 103.053 59.7474 103.169 59.979C103.285 60.2105 103.4 60.5579 103.285 61.1369L102.937 61.3684Z" fill="white"/>
<path d="M113.822 61.6C113.822 61.9474 113.822 62.2947 113.822 62.5263C113.822 62.8737 113.822 63.2211 113.706 63.4526L112.78 69.5895H111.159C111.043 69.5895 110.927 69.5895 110.811 69.3579C110.811 69.2421 110.695 69.0105 110.695 68.8947C110.695 68.6632 110.695 68.5474 110.695 68.4316C110.695 68.2 110.695 67.9684 110.695 67.7369C110.695 67.5053 110.695 67.1579 110.695 66.9263C110.695 66.579 110.695 66.3474 110.811 66.1158L111.159 64.0316C111.159 63.8 111.159 63.5684 111.274 63.2211C111.274 62.9895 111.274 62.7579 111.274 62.5263C111.274 62.2947 111.274 62.179 111.159 62.0632C111.159 62.0632 110.927 61.9474 110.811 61.9474C110.695 61.9474 110.348 62.0632 110.001 62.4105C109.653 62.7579 109.19 63.2211 108.843 63.8C108.38 64.379 108.032 65.1895 107.685 66C107.338 66.8105 107.106 67.7369 106.99 68.779C106.99 68.8948 106.99 69.1263 106.759 69.1263C106.527 69.1263 106.411 69.3579 106.18 69.3579C105.948 69.3579 105.716 69.4737 105.485 69.4737C105.253 69.4737 105.138 69.4737 105.022 69.4737C104.906 69.4737 104.674 69.4737 104.674 69.4737C104.674 69.4737 104.559 69.2421 104.559 69.0105C104.559 68.779 104.559 68.3158 104.559 67.8526L105.138 62.4105L105.485 59.6316H106.99H107.222C107.338 59.6316 107.453 59.8632 107.569 59.979C107.685 60.3263 107.801 60.5579 107.801 61.0211C107.801 61.4842 107.801 61.4842 107.685 61.8316C107.569 62.179 107.453 62.5263 107.338 62.9895C107.222 63.3369 107.106 63.6842 106.99 64.0316L106.527 65.6526C106.874 64.6105 107.338 63.6842 107.801 62.8737C108.264 62.0632 108.843 61.4842 109.306 61.0211C109.769 60.5579 110.348 60.2105 110.811 59.979C111.274 59.7474 111.738 59.6316 112.085 59.6316C112.432 59.6316 112.895 59.6316 113.127 59.8632C113.359 59.979 113.59 60.2105 113.706 60.4421C113.822 60.6737 113.822 61.0211 113.822 61.3684V61.6Z" fill="white"/>
<path d="M118.685 61.0211C118.685 60.6737 118.685 60.4421 118.569 60.3263C118.569 59.979 118.222 59.8632 117.99 59.8632H116.369L115.674 66.2316C115.674 66.6947 115.674 67.0421 115.559 67.3895C115.559 67.7368 115.559 68.0842 115.559 68.5474C115.559 69.0105 115.559 69.2421 115.674 69.4737C115.674 69.8211 115.906 69.9369 116.138 69.9369H117.643C117.643 69.5895 117.643 69.3579 117.759 69.0105C117.759 68.6632 117.759 68.3158 117.874 67.8526C117.874 67.3895 117.99 66.8105 118.106 66.1158L118.453 62.8737C118.453 62.4105 118.453 62.179 118.569 61.9474C118.569 61.9474 118.569 61.8316 118.569 61.7158C118.569 61.6 118.569 61.4842 118.569 61.3684C118.569 61.2526 118.569 61.2526 118.569 61.1368L118.685 61.0211ZM117.99 57.3158C117.99 57.3158 117.99 57.4316 117.99 57.5474C117.99 57.5474 117.99 57.5474 117.99 57.4316V57.3158Z" fill="white"/>
<path d="M118.685 61.0211C118.685 60.6737 118.685 60.4421 118.569 60.3263C118.569 59.9789 118.222 59.8632 117.99 59.8632H116.369L115.674 66.2316C115.674 66.6947 115.674 67.0421 115.559 67.3895C115.559 67.7368 115.559 68.0842 115.559 68.5474C115.559 69.0105 115.559 69.2421 115.674 69.4737C115.674 69.8211 115.906 69.9368 116.138 69.9368H117.643C117.643 69.5895 117.643 69.3579 117.759 69.0105C117.759 68.6632 117.759 68.3158 117.874 67.8526C117.874 67.3895 117.99 66.8105 118.106 66.1158L118.453 62.8737C118.453 62.4105 118.453 62.1789 118.569 61.9474C118.569 61.9474 118.569 61.8316 118.569 61.7158C118.569 61.6 118.569 61.4842 118.569 61.3684C118.569 61.2526 118.569 61.2526 118.569 61.1368L118.685 61.0211ZM120.306 61.3684V61.4842C120.306 61.4842 120.306 61.3684 120.306 61.2526V61.3684Z" fill="white"/>
<path d="M119.032 56.1579C118.801 55.9263 118.453 55.8105 117.99 55.8105C117.527 55.8105 117.18 55.9263 116.832 56.2737C116.485 56.5053 116.369 56.9684 116.369 57.5474C116.369 58.1263 116.485 58.3579 116.832 58.5895C117.18 58.8211 117.527 58.9369 117.874 58.9369C118.222 58.9369 118.685 58.8211 119.032 58.4737C119.38 58.1263 119.495 57.779 119.495 57.3158C119.495 56.8527 119.38 56.5053 119.032 56.1579ZM117.99 57.4316C117.99 57.4316 117.874 57.2 117.99 57.2C117.99 57.2 117.99 57.2 117.99 57.3158V57.4316Z" fill="white"/>
<path d="M120.306 61.3684V61.4842C120.306 61.4842 120.306 61.3684 120.306 61.2526V61.3684ZM125.285 67.5053C125.285 67.621 125.285 67.7368 125.285 67.9684C125.285 67.9684 125.285 67.8526 125.285 67.7368C125.285 67.621 125.285 67.621 125.285 67.621V67.5053Z" fill="white"/>
<path d="M126.327 60.6737C126.327 60.9053 126.096 61.1368 126.096 61.2526C126.096 61.3684 125.98 61.4842 125.864 61.6C125.748 61.7158 125.517 61.8316 125.054 61.8316H123.548L123.085 65.8842C123.085 66.1158 123.085 66.3474 123.085 66.5789C123.085 66.8105 123.085 67.0421 123.085 67.1579C123.085 67.3895 123.085 67.621 123.317 67.7368C123.433 67.8526 123.664 67.9684 123.896 67.9684C124.127 67.9684 124.475 67.9684 124.706 67.7368C124.938 67.621 125.054 67.5053 125.169 67.5053C125.285 67.5053 125.169 67.5053 125.285 67.5053C125.285 67.621 125.285 67.7368 125.285 67.9684C125.285 67.9684 125.285 68.0842 125.169 68.2C125.054 68.4316 124.822 68.6631 124.59 68.8947C124.359 69.1263 124.011 69.3579 123.548 69.4737C123.201 69.5895 122.738 69.7053 122.159 69.7053C121.58 69.7053 121.001 69.4737 120.769 69.1263C120.422 68.7789 120.422 68.2 120.422 67.3895L121.117 61.4842H120.538C120.422 61.4842 120.306 61.4842 120.19 61.2526C120.19 61.2526 120.19 61.1368 120.19 61.021C120.19 60.7895 120.306 60.6737 120.422 60.4421C120.654 60.2105 120.885 59.8631 121.117 59.5158C121.348 59.1684 121.696 58.9368 122.043 58.5895C122.39 58.3579 122.622 58.1263 122.854 57.8947C123.085 57.6631 123.317 57.6631 123.433 57.6631C123.548 57.6631 123.78 57.6631 123.78 57.8947C123.78 58.0105 123.78 58.1263 123.78 58.3579V59.8631C123.664 59.8631 125.748 59.8631 125.748 59.8631C125.748 59.8631 125.864 59.8631 125.98 59.8631H126.096C126.096 59.8631 126.096 59.9789 126.096 60.2105L126.327 60.6737Z" fill="white"/>
<path d="M136.054 61.2526C136.054 61.4842 136.054 61.8316 136.054 62.1789C136.054 62.5263 136.054 62.9895 135.938 63.3368L135.359 69.0105C135.359 69.9368 135.012 70.6316 134.664 71.2105C134.317 71.7895 133.854 72.3684 133.275 72.7158C132.696 73.0632 132.117 73.4105 131.538 73.6421C130.959 73.8737 130.264 73.8737 129.685 73.8737C129.106 73.8737 128.527 73.8737 128.064 73.5263C127.601 73.2947 127.254 73.0632 127.022 72.6C126.791 72.2526 126.675 71.6737 126.675 71.0947C126.675 70.5158 126.675 70.7474 126.675 70.7474C126.675 70.7474 126.791 70.7474 126.906 70.7474C127.022 70.7474 127.022 70.7474 127.138 70.7474C127.138 70.7474 127.37 70.8632 127.485 70.9789C127.717 71.0947 127.948 71.3263 128.296 71.4421C128.643 71.6737 128.991 71.7895 129.338 71.9053C129.685 72.0211 130.033 72.1368 130.38 72.1368C130.727 72.1368 130.959 72.1368 131.191 71.7895C131.422 71.5579 131.77 71.2105 132.001 70.7474C132.233 70.2842 132.464 69.4737 132.696 68.5474L133.622 64.7263C133.159 65.6526 132.812 66.4632 132.233 67.1579C131.654 67.9684 130.959 68.6632 130.264 69.0105C129.57 69.3579 128.991 69.5895 128.412 69.5895C127.833 69.5895 127.485 69.4737 127.138 69.1263C126.906 68.8947 126.791 68.5474 126.791 68.0842C126.791 67.8526 126.791 67.7368 126.791 67.6211C126.791 67.5053 126.791 67.3895 126.791 67.2737C126.791 66.9263 126.791 66.4632 126.906 65.7684L127.37 61.7158L127.601 59.8632H129.106C129.338 59.8632 129.57 59.9789 129.685 60.2105C129.801 60.4421 129.917 60.7895 129.917 61.1368C129.917 61.4842 129.917 61.6 129.917 61.8316C129.917 62.0632 129.917 62.2947 129.917 62.5263C129.917 62.7579 129.917 63.1053 129.801 63.5684L129.57 65.3053C129.57 65.6526 129.57 66 129.454 66.2316C129.454 66.4632 129.454 66.6947 129.454 66.9263C129.454 67.1579 129.454 67.3895 129.454 67.5053C129.454 67.6211 129.57 67.7368 129.801 67.7368C130.033 67.7368 130.264 67.6211 130.496 67.2737C130.727 67.0421 131.075 66.5789 131.422 66.2316C131.77 65.7684 132.001 65.3053 132.233 64.8421C132.464 64.3789 132.696 63.8 132.927 63.3368C133.159 62.8737 133.159 62.4105 133.159 62.0632C133.159 61.7158 133.159 61.6 133.159 61.3684C133.159 61.1368 133.159 60.9053 133.159 60.6737C133.159 60.4421 133.275 60.3263 133.506 60.2105C133.738 60.0947 134.085 59.9789 134.433 59.8632C134.78 59.8632 135.012 59.8632 135.359 59.8632C135.706 59.8632 135.706 59.8632 135.822 60.2105C135.938 60.5579 135.938 60.7895 135.938 61.2526H136.054Z" fill="white"/>
</svg>
